<svg width="34" height="34" viewBox="0 0 34 34" fill="none" xmlns="http://www.w3.org/2000/svg">
<path d="M17 0C7.62582 0 0 7.62582 0 17C0 26.3742 7.62582 34 17 34C26.3742 34 34 26.3742 34 17C34 7.62582 26.3742 0 17 0ZM17 26.9166C16.2179 26.9166 15.5834 26.2821 15.5834 25.5C15.5834 24.7179 16.2179 24.0834 17 24.0834C17.7821 24.0834 18.4166 24.7179 18.4166 25.5C18.4166 26.2821 17.7821 26.9166 17 26.9166ZM19.2425 17.9095C18.7411 18.1403 18.4166 18.6461 18.4166 19.1974V19.8334C18.4166 20.6152 17.7834 21.25 17 21.25C16.2166 21.25 15.5834 20.6152 15.5834 19.8334V19.1974C15.5834 17.544 16.5551 16.0283 18.0555 15.3354C19.4991 14.6711 20.5416 12.9072 20.5416 12.0416C20.5416 10.0896 18.9535 8.5 17 8.5C15.0465 8.5 13.4584 10.0896 13.4584 12.0416C13.4584 12.8237 12.825 13.4584 12.0416 13.4584C11.2582 13.4584 10.625 12.8237 10.625 12.0416C10.625 8.52698 13.4851 5.66658 17 5.66658C20.5149 5.66658 23.375 8.52698 23.375 12.0416C23.375 13.9557 21.7146 16.7691 19.2425 17.9095Z" fill="#707070"/>
</svg>
