<svg width="32" height="32" viewBox="0 0 32 32" fill="none" xmlns="http://www.w3.org/2000/svg">
<path d="M16.2855 32C24.9643 32 31.9998 24.9645 31.9998 16.2858C31.9998 7.60703 24.9643 0.571533 16.2855 0.571533C7.60679 0.571533 0.571289 7.60703 0.571289 16.2858C0.571289 24.9645 7.60679 32 16.2855 32Z" fill="#707070"/>
<path d="M22.7361 6.87622H9.8365C8.20339 6.87622 6.87842 8.20119 6.87842 9.83709V22.7366C6.87842 24.3697 8.20339 25.6947 9.8365 25.6947H22.7361C24.3692 25.6947 25.6942 24.3697 25.6942 22.7366V9.83709C25.6942 8.20119 24.3692 6.87622 22.7361 6.87622ZM20.7357 9.05276L23.1 9.04715H23.1056C23.3325 9.04435 23.5173 9.22923 23.5173 9.45333V11.8259C23.5173 12.0528 23.3353 12.2349 23.1084 12.2349L20.7469 12.2433C20.52 12.2433 20.338 12.0612 20.338 11.8372L20.3296 9.46453C20.3268 9.23763 20.5088 9.05556 20.7357 9.05276ZM13.4024 14.6692C13.4641 14.5627 13.5285 14.4563 13.6013 14.3554C14.2036 13.5207 15.1812 12.9744 16.2849 12.9744C17.3914 12.9744 18.369 13.5207 18.9712 14.3554C19.0441 14.4563 19.1085 14.5627 19.1701 14.672C19.439 15.1482 19.5987 15.7 19.5987 16.2855C19.5987 18.1118 18.1113 19.5965 16.2849 19.5965C14.4585 19.5965 12.9739 18.1118 12.9739 16.2855C12.9736 15.7 13.1307 15.1482 13.4024 14.6692ZM23.8622 22.0587C23.8622 23.0532 23.0526 23.8627 22.0582 23.8627H10.5144C9.51996 23.8627 8.71041 23.0532 8.71041 22.0587V14.3554H11.52C11.45 14.5263 11.3884 14.7056 11.3379 14.8849C11.2091 15.3303 11.1419 15.8009 11.1419 16.2855C11.1419 19.1231 13.4501 21.4313 16.2849 21.4313C19.1225 21.4313 21.4307 19.1231 21.4307 16.2855C21.4307 15.8009 21.3607 15.3303 21.2346 14.8849C21.1814 14.7056 21.1226 14.5263 21.0525 14.3554H23.8622V22.0587Z" fill="white"/>
</svg>
