<svg width="33" height="32" viewBox="0 0 33 32" fill="none" xmlns="http://www.w3.org/2000/svg">
<g clip-path="url(#clip0)">
<path d="M16.4055 31.8094C25.0316 31.8094 32.0245 24.8166 32.0245 16.1905C32.0245 7.56437 25.0316 0.571533 16.4055 0.571533C7.77945 0.571533 0.786621 7.56437 0.786621 16.1905C0.786621 24.8166 7.77945 31.8094 16.4055 31.8094Z" fill="#707070"/>
<path d="M25.972 11.7964C25.3027 12.0932 24.5827 12.2939 23.8276 12.3836C24.5986 11.9217 25.1902 11.1908 25.4695 10.3185C24.7481 10.7464 23.9487 11.0569 23.0987 11.2242C22.4177 10.4989 21.4474 10.0457 20.3729 10.0457C18.3115 10.0457 16.6396 11.7176 16.6396 13.779C16.6396 14.0716 16.6727 14.3565 16.7368 14.6299C13.634 14.4742 10.8829 12.988 9.04144 10.7286C8.72015 11.2799 8.53583 11.9217 8.53583 12.6057C8.53583 13.9007 9.19541 15.0439 10.1966 15.7132C9.58492 15.694 9.00887 15.5261 8.50576 15.2457C8.50548 15.2616 8.50548 15.2775 8.50548 15.2931C8.50548 17.102 9.79291 18.6108 11.5005 18.9535C11.1875 19.0392 10.857 19.0846 10.5171 19.0846C10.276 19.0846 10.0424 19.0615 9.81462 19.0181C10.2896 20.501 11.6681 21.5804 13.3021 21.6108C12.0242 22.6122 10.4146 23.2089 8.66502 23.2089C8.36432 23.2089 8.06641 23.1914 7.7749 23.1566C9.42622 24.2162 11.3891 24.834 13.4973 24.834C20.3643 24.834 24.1197 19.1453 24.1197 14.2114C24.1197 14.0496 24.1161 13.8884 24.1088 13.7286C24.8388 13.2024 25.4717 12.5451 25.972 11.7964Z" fill="white"/>
</g>
<defs>
<clipPath id="clip0">
<rect width="31.2381" height="31.2381" fill="white" transform="translate(0.785645 0.571533)"/>
</clipPath>
</defs>
</svg>
